<svg xmlns="http://www.w3.org/2000/svg" class="w-full" viewBox="0 0 370.6 270.6">
    <defs />
    <path fill="#ededec" d="M329.4 142.2A142.2 142.2 0 1098.1 253.1h178.2a142 142 0 0053.1-110.9z" />
    <path fill="#252527" d="M167.2 226.4H201v12a14.3 14.3 0 01-14.3 14.2h-5.3a14.3 14.3 0 01-14.3-14.3v-11.9z" />
    <path fill="#a098a2" d="M157.3 189.6h54v39.2a10.8 10.8 0 01-10.8 10.7H168a10.8 10.8 0 01-10.8-10.7v-39.2z" />
    <path fill="#bdb6bf" d="M211.5 212.6h-54.8a6.5 6.5 0 01-6.5-6.5 6.5 6.5 0 016.5-6.5h54.8a6.5 6.5 0 016.5 6.5 6.5 6.5 0 01-6.5 6.5z" />
    <path fill="#d8d3d8" d="M178.7 212.6h-11.5a6.5 6.5 0 01-6.5-6.5 6.5 6.5 0 016.5-6.5h11.5a6.5 6.5 0 016.5 6.5 6.5 6.5 0 01-6.5 6.5z" />
    <path fill="#bdb6bf" d="M211.5 232.4h-54.8a6.5 6.5 0 01-6.5-6.5 6.5 6.5 0 016.5-6.6h54.8a6.5 6.5 0 016.5 6.6 6.5 6.5 0 01-6.5 6.5z" />
    <path fill="#d8d3d8" d="M173.2 232.4h-.6a6.5 6.5 0 01-6.5-6.5 6.5 6.5 0 016.5-6.6h.6a6.5 6.5 0 016.6 6.6 6.5 6.5 0 01-6.6 6.5z" />
    <path fill="#e5bf47" d="M261.1 100c0-39.2-34.4-71-76.8-71s-76.9 31.9-76.9 71c0 23.6 12.4 44.4 31.4 57.3s9 5 10 18.3v9.5c0 4.5 3.9 8.1 8.8 8.1h53.6c4.8 0 8.8-3.6 8.8-8v-9.7c1-13.3 9.7-18.1 9.7-18.1 19-13 31.4-33.8 31.4-57.3z" />
    <circle cx="185.2" cy="106.7" r="55.5" fill="#ebcd73" transform="rotate(-77.7 185.2 106.7)" />
    <path fill="none" stroke="#fff" stroke-miterlimit="10" stroke-width="2.2" d="M176.2 193.2v-80a10.7 10.7 0 00-10.7-10.8h0a10.7 10.7 0 00-10.8 10.7v6a10.7 10.7 0 0010.8 10.8H184" />
    <path fill="none" stroke="#fff" stroke-miterlimit="10" stroke-width="2.2" d="M192 193.2v-80a10.7 10.7 0 0110.7-10.8h0a10.7 10.7 0 0110.8 10.7v6a10.7 10.7 0 01-10.8 10.8h-20" />
    <path fill="none" stroke="#fff" stroke-linecap="round" stroke-linejoin="round" stroke-width="13.1" d="M138.5 66.4A60.5 60.5 0 01157 51.2" />
    <path fill="none" stroke="#fff" stroke-linecap="round" stroke-linejoin="round" stroke-width="9" d="M126.2 116.8a60.4 60.4 0 01-1.2-12.4m120.4 0a60.2 60.2 0 01-2.2 16.3" />
    <path fill="none" stroke="#262525" stroke-miterlimit="10" d="M0 252.7h362.5M60.2 270H161" />
    <path fill="#C4B5FD" d="M368.6 164.5h-16.8a2 2 0 01-2-2 2 2 0 012-2h16.8a2 2 0 012 2 2 2 0 01-2 2zM68.4 29.5H34a2 2 0 01-2-2 2 2 0 012-2h34.3a2 2 0 012 2 2 2 0 01-2 2z" />
    <rect width="6.2" height="6" x="328.3" y="28.2" fill="#C4B5FD" rx="1.5" />
    <rect width="6.2" height="6" x="3.1" y="153.9" fill="#C4B5FD" rx="1.5" />
    <rect width="5.5" height="5.3" x="82.1" y="122.9" fill="#fff" rx="1.3" />
    <path fill="#fff" d="M192.5 15.8h-16.7a2 2 0 01-2-2 2 2 0 012-2h16.7a2 2 0 012 2 2 2 0 01-2 2z" />
    <path fill="#da9a9a" d="M353.3 96.8h-16a3.8 3.8 0 01-3.8-3.9 3.8 3.8 0 013.9-3.8h15.9a3.8 3.8 0 013.8 3.8 3.8 3.8 0 01-3.8 3.9z" />
    <path fill="#fff" d="M342.1 93a1 1 0 11-1-1 1 1 0 011 1zm4.2 0a1 1 0 01-1 1 1 1 0 010-2 1 1 0 011 1zm4.2 0a1 1 0 01-1 1 1 1 0 010-2 1 1 0 011 1z" />
    <circle cx="55.9" cy="76.9" r="14.1" fill="#9B42DA" />
    <path fill="#fff" d="M60.64 73.29a2.92 2.92 0 00-4.14 0l-.74.76-.76-.71a2.92 2.92 0 10-4.1 4.17l2.84 2.8a2.78 2.78 0 001.6.8 2.92 2.92 0 002.54-.84l2.8-2.86a2.92 2.92 0 00-.04-4.12z" />
    <path fill="#6366F1" d="M265.3 17H293a3.4 3.4 0 013.4 3.4v24a3.4 3.4 0 01-3.4 3.3h-26.8a4.3 4.3 0 01-4.3-4.3v-23a3.4 3.4 0 013.3-3.4z" />
    <path fill="#fcfbfb" d="M276.3 39l8.5-.1c.9 0 1.6-1.4.6-1.8a2 2 0 001-1 1 1 0 00-.5-1.2c1 .3 1.5-1.3.7-1.8a2.4 2.4 0 00.8-1.4 1.4 1.4 0 00-.6-1.4 2.2 2.2 0 00-1-.2H282a8.4 8.4 0 00-.5-5.6c-.3-.6-1.1-1.2-1.7-.8s-.4 1.3-.4 1.9a6.4 6.4 0 01-3.3 5.8V39zm-5.5-7.7h4.4V39h-4.4z" />
    <path fill="#354f92" d="M329.2 253a1.4 1.4 0 01-1.3-.9l-37.7-103.3-37.6 103.3a1.4 1.4 0 11-2.6-.9l39-106.9a1.4 1.4 0 012.5 0l39 106.9a1.4 1.4 0 01-.9 1.8 1.3 1.3 0 01-.4 0z" />
    <path fill="#354f92" d="M294.7 158.5h-20.5a1.4 1.4 0 110-2.8h20.5a1.4 1.4 0 110 2.8zm5.3 15h-19.5a1.4 1.4 0 110-2.7H300a1.4 1.4 0 010 2.8z" />
    <path fill="#354f92" d="M278.3 173.6h-18.7a1.4 1.4 0 010-2.8h18.7a1.4 1.4 0 010 2.8zm27 15h-19.6a1.4 1.4 0 010-2.7h19.6a1.4 1.4 0 010 2.7zm-31 0h-19.6a1.4 1.4 0 010-2.7h19.5a1.4 1.4 0 010 2.7zm36.2 15.1H291a1.4 1.4 0 010-2.8h19.5a1.4 1.4 0 010 2.8zm-42 0H249a1.4 1.4 0 010-2.8h19.5a1.4 1.4 0 110 2.8zm47.3 15h-19.5a1.4 1.4 0 010-2.7h19.5a1.4 1.4 0 110 2.8zm-52.6 0h-19.5a1.4 1.4 0 110-2.7h19.5a1.4 1.4 0 010 2.8zm57.9 15.2h-19.5a1.4 1.4 0 110-2.8H321a1.4 1.4 0 110 2.8zm-63.3 0h-19.5a1.4 1.4 0 010-2.8h19.5a1.4 1.4 0 010 2.8zm32.3-87.7h-20.5a1.4 1.4 0 010-2.8h20.5a1.4 1.4 0 010 2.8z" />
    <path fill="#c3845c" d="M296.3 211l.6-11 6 .7-1.2 11.7-5.7-1 .3-.4z" />
    <path fill="#070308" d="M302.5 209.6s-4 2-6.2-1l-10.8 5.8 18.5-.2z" />
    <path fill="#a098a2" d="M285.5 214.4l18.5-.2v1.7l-18.5.1z" />
    <path fill="#e1b846" d="M302.7 136.8s-5.3 3.2-6 20.8l-1.7 47.2h9l4.6-57.4-1.2-10.6z" />
    <path fill="#c3845c" d="M311.8 211l-.6-11 6 .7v11.7l-5.7-1 .3-.4z" />
    <path fill="#070308" d="M318 209.6s-4 2-6.2-1l-10.8 5.8 18.5-.2z" />
    <path fill="#a098a2" d="M301 214.4l18.5-.2v1.7l-18.5.1z" />
    <path fill="#e1b846" d="M314.9 139.1s5.4 6.3 4.6 17.2l-.3 48.6-10.2-.3-3.2-66z" />
    <path fill="none" stroke="#d1a73e" stroke-miterlimit="10" stroke-width=".8" d="M307 167.2l-.5-14-3.9-5.4" />
    <path fill="#c3845c" d="M269.2 117l11.5 11a3.1 3.1 0 005-.8l1-2-15.5-11.3z" />
    <path fill="#c3845c" d="M271.5 115.5a3.5 3.5 0 11-2.3-4.4 3.5 3.5 0 012.3 4.4z" />
    <path fill="#c3845c" d="M269 111l-3.2-2a.6.6 0 00-.9.2.5.5 0 00.1.7l3 2.7zm13.5 12l14.8-5.5-.7 7s-8 3.5-13 4.3-1-5.8-1-5.8z" />
    <path fill="#6366F1" d="M301.2 117.3s-1.4-2.1-4.9-.7-9.9 3.7-9.9 3.7l5.6 9.5 10.5-4z" />
    <path fill="#6366F1" d="M315.3 115.2l-7.8-.8-9.8 1.8s-.7 14.1 1 21.4a2.6 2.6 0 002.7 2l14 .2a5.5 5.5 0 002-4.3l-1-19.2a1.2 1.2 0 00-1.1-1.1z" />
    <path fill="none" stroke="#354f92" stroke-miterlimit="10" stroke-width=".8" d="M297.2 127.4l-.5-5.4" />
    <path fill="#9B42DA" d="M339.2 148.7l-45.6-4.7a1.9 1.9 0 01-1.6-2l.5-5.5a1.9 1.9 0 012-1.7l45.6 4.8a1.9 1.9 0 011.7 2l-.6 5.5a1.9 1.9 0 01-2 1.6z" />
    <path fill="#c3845c" d="M326.5 139.4a33 33 0 011.8-3.4l-5-10.6c-.8-2.1-5.3-9.4-7-8.2-1.4 1-.6 9.2.2 10.7l5.4 10.3z" />
    <path fill="#6366F1" d="M314.5 115s4.5.4 6.3 3.1l6 9.1-11.5 4.3z" />
    <path fill="none" stroke="#354f92" stroke-miterlimit="10" stroke-width=".8" d="M316.9 131l-4.3-7.4" />
    <path fill="#c3845c" d="M323.3 134l-12.6 9 2 3 13.6-5.9a3.4 3.4 0 001.3-5.4 3.4 3.4 0 00-4.3-.7z" />
    <path fill="#c3845c" d="M313 145.6s-1.6 4-4.8 3.6c-3.8-.4-4-3.4-2.4-4l2.5.2a2.8 2.8 0 011.6-2.3 3.8 3.8 0 011.4-.3z" />
    <path fill="#c3845c" d="M310.5 142.9l-3.5.6a.5.5 0 00-.3.5.5.5 0 00.4.5l3.4.3z" />
    <path fill="#232132" d="M296.2 104.3a15.6 15.6 0 002.3-3l1-2.6 3.4.9-1.6 3.3-1 .6 6.8 7.8s-4.9 4.7-9.6 1.7c-3.9-2.5-3.3-7-1.3-8.8z" />
    <path fill="#232132" d="M314.5 100.4a6.2 6.2 0 002.5 3.8c2 1.4 2.6 6.3-1.3 8.8-4.7 3-9.6-1.7-9.6-1.7z" />
    <path fill="#232132" d="M301.3 96s9.4-4 12.7 2.2c1.9 3.7-.4 10-5 12-4.4 1.7-3.1-12.7-3.1-12.7z" />
    <path fill="#af6b48" d="M302.5 104.8a2.2 2.2 0 11-2.3-2 2.1 2.1 0 012.3 2z" />
    <path fill="#c3845c" d="M303.2 110.9l.4 4.6a2.3 2.3 0 002.8 2.4 2.6 2.6 0 002.7-2.4l-1-7.3z" />
    <path fill="#af6b48" d="M303.4 114.3l5.5-5-5.8 1 .3 4z" />
    <path fill="#c3845c" d="M304.6 111.6c-2.7 0-5-2-5.2-4.3l-.2-5.4a5.3 5.3 0 014.8-5.5c2.9-.2 6 1.9 6.2 4.8l.1 4.3a6 6 0 01-5.7 6.1z" />
    <path fill="#232132" d="M309.5 105a4.1 4.1 0 00-1.8-2.9c-1.7-1-6-2.3-5.6-5.7 0 0 6.8-2 9.3 2.5s-2 6.1-2 6.1z" />
    <path fill="#c3845c" d="M313 105a2.1 2.1 0 11-2.3-2 2.1 2.1 0 012.3 2z" />
    <path fill="#232132" d="M303.9 96.4s-.5 2.8-4.9 4.6c0 0-1-2 1.8-4.7a1.5 1.5 0 011-.4h3.4z" />
    <path fill="#c3845c" d="M311.3 114.8l-4.3-.5-5.8 1.3s0 4.1 4.7 3.8a5.8 5.8 0 005.4-4.6z" />
    <path fill="#6366F1" d="M308.4 253a1.4 1.4 0 01-1.3-.9l-37.6-103.3-37.7 103.3a1.4 1.4 0 11-2.6-.9l39-106.9a1.4 1.4 0 012.6 0l38.9 106.9a1.4 1.4 0 01-.8 1.8 1.3 1.3 0 01-.5 0z" />
    <path fill="#e5b699" d="M57.5 234.3l-.8 11.3-5.2-.2.1-11.5 5.9.4z" />
    <path fill="#070308" d="M57.1 244.4l9.6 4.3a1.5 1.5 0 01.8 1.8H50.6l.6-6.2z" />
    <path fill="#bdb6bf" d="M67.7 252.3H50.3v-1.9h17.4z" />
    <path fill="#e5b699" d="M40.4 234.3l-.8 11.3-5.2-.2.2-11.5 5.8.4z" />
    <path fill="#070308" d="M40 244.4l9.6 4.3a1.5 1.5 0 01.8 1.8H33.5l.6-6.2z" />
    <path fill="#bdb6bf" d="M50.6 252.3H33.2v-1.9h17.4z" />
    <path fill="#8B5CF6" d="M54.5 180.8l-20.2 1.5-2.6 56.6h11l3.6-42.7 4.7 18.2-1.6 25.2h9.4l3.2-27.8-7.5-31z" />
    <path fill="none" stroke="#33559a" stroke-miterlimit="10" stroke-width=".8" d="M50.8 193.7l-4.5 2.5" />
    <path fill="#dea59a" d="M54.2 163.5l-.1 5.5h3.1l-.2-5.9-2.8.4z" />
    <path fill="#da9a9a" d="M54.4 154s5 3 4.3 12.6l-4.7-1z" />
    <path fill="#da9a9a" d="M44.2 151a43.9 43.9 0 00-10.8 1.7l.2 32.2 21.4-1.6-.2-28.2a1.4 1.4 0 00-.7-1.2l-6-2.5s-2.8-.5-3.9-.5z" />
    <path fill="none" stroke="#cd8988" stroke-miterlimit="10" stroke-width=".8" d="M54.9 165.7v-6.2" />
    <path fill="#e5b699" d="M36 163.6l-1.4 16s-1.5 3.1-4.2-.2S30 163 30 163z" />
    <path fill="#da9a9a" d="M36.7 167s1.7-13.6-2-14.3-7.5 8.4-7.5 16z" />
    <path fill="none" stroke="#cd8988" stroke-miterlimit="10" stroke-width=".8" d="M35.6 167l1.5-.4.2-6.4" />
    <path fill="#e5b699" d="M45.1 164.6a4.4 4.4 0 013.6-3.1c2.8-.3 3.6 2 3.1 3.4s-2.4 3.8-5.1 2.6-1.6-3-1.6-3z" />
    <path fill="#e5b699" d="M49.6 161.5a17.6 17.6 0 014.9 1.3.6.6 0 01.2.6.5.5 0 01-.6.4l-3.8-.7zM34 180.3l12.7-12.8-1.6-3-12.3 8 1.2 7.8z" />
    <path fill="none" stroke="#d6a485" stroke-miterlimit="10" stroke-width=".5" d="M35.3 170.8l-2.5 1.6" />
    <path fill="#131314" d="M62.4 167.8l-5.3 15.8a1.2 1.2 0 01-1.3.9l-13-1.7a1.2 1.2 0 01-1-1.6l5.5-15.9a1.2 1.2 0 011.3-.7l12.8 1.6a1.2 1.2 0 011 1.6z" />
    <path fill="#131314" d="M62.2 166.6l.7 1L42.7 183l-.8-1 20.3-15.5z" />
    <path fill="#445057" d="M63 168.6l-5.3 15.8a1.2 1.2 0 01-1.3.8l-13-1.7a1.2 1.2 0 01-1-1.5L48 166a1.2 1.2 0 011.3-.8L62 167a1.2 1.2 0 01.9 1.6z" />
    <path fill="#e5b699" d="M62.4 173.2l-1.2 3.3a1 1 0 01-1 .6 2 2 0 01-1.7-2.6l.4-1.2a2 2 0 012-1.4h.7a1 1 0 01.8 1.3zm-13.5-27l-.6 5.2a2.6 2.6 0 01-3.2 2.4c-1.5-.2-3-1.2-2.8-2.8l.8-8.1z" />
    <path fill="#d6a485" d="M48.3 151s-5.8-2.2-5.3-7.4c.1-1.6 6 2.3 6 2.3z" />
    <path fill="#e5b699" d="M49.6 152l-2.6-1.2-4.4.1-2.6.4s-1 4 5.6 4.1c5.3.2 4-3.4 4-3.4z" />
    <path fill="#1e2325" d="M52.4 139.4s5-3.8 2.8-7.3-6.6-.5-6.6-.5zm-4-8.7s-14.4-2-8 9l1.6-4.4z" />
    <path fill="#1e2325" d="M52.7 133.7s2.4 2-.6 6.4l-.8-5.6z" />
    <path fill="#cb987b" d="M50 141.4a2.1 2.1 0 102.4-1.9 2.2 2.2 0 00-2.4 2z" />
    <path fill="#e5b699" d="M46.7 148a5.5 5.5 0 005.8-4.7l.4-5.3a5.8 5.8 0 00-5-6.3c-3.1-.4-6.5 1.9-6.9 5.1l-.2 4.1a6.6 6.6 0 005.9 7.1z" />
    <path fill="#1e2325" d="M53 136.8s.1-1.4-2.6-1.8-6.2 0-8.2 2.4v3.8l-2.4-2.4 1.3-5.7 7.3-2.4 4.3 3z" />
    <path fill="#e5b699" d="M38 140.7a2.1 2.1 0 102.3-2 2.1 2.1 0 00-2.3 2z" />
    <path fill="#1e2325" d="M50.5 131.8s.6-1.7-1.7-2.6c-2-.8-4-.4-8.3 2.5zm1.5 13.8a.9.9 0 00-.5-.8 9 9 0 00-2.2-.6 12 12 0 00-4.3.5 1 1 0 01-1-.5 12 12 0 01-1-8.2l-1.6 1 .2 2.4s1.2 2.5-.7 3.6c0 0 0 5.2 4.8 6.2a7.1 7.1 0 004.2-.6 3.5 3.5 0 002.1-3z" />
    <path fill="#1e2325" d="M42.4 138.5a2.7 2.7 0 002-3.9c-1.3-3-2.8.9-2.8.9z" />
    <path fill="#e5b699" d="M84.2 254.7l5.1-8 6 3-6.1 9.4-4.9-2.2v-2.2z" />
    <path fill="#070308" d="M84.1 254.1s3 4.7 6.9 3.5l4.5 11.1-15.8-11.4z" />
    <path fill="#bdb6bf" d="M78.7 258.7l1-1.4 15.8 11.5-1 1.3z" />
    <path fill="#8B5CF6" d="M100.9 206.1l-6.2 26.1-10.3 17.4 9.8 5.7 12.4-22.1 4.1-16.7-9.8-10.4z" />
    <path fill="#5371b0" d="M94.2 255.8l-10.6-6.3 3-5 10.7 6.7-3 4.6z" />
    <path fill="#e5b699" d="M131.6 262.7l-3.8-8.7 5.9-3.3L138 261l-4.5 2.8-1.9-1.2z" />
    <path fill="#070308" d="M131 262.4s5.6.3 6.7-3.7l11.8 2.6-18.3 6.5z" />
    <path fill="#bdb6bf" d="M131.2 268l18.3-6.7.6 1.5-18.3 6.7z" />
    <path fill="#8B5CF6" d="M112.8 199v6l15.5 24 9.8 26.3-9.6 3.8-9.8-24.1-18.6-24s-6.2-8 1.3-15.2z" />
    <path fill="none" stroke="#33559a" stroke-miterlimit="10" stroke-width=".8" d="M109.2 222.7l-9.4-12" />
    <path fill="#5371b0" d="M138.8 255l-11 4.6-2.2-5.5 11.4-4.3 1.8 5.2z" />
    <path fill="#d6a485" d="M113.9 177.6l7.2 5.3 8.7-11.2 2.7 1.5s-3.2 11-7.5 16.6a2.8 2.8 0 01-3.2.8 44 44 0 01-12.1-7.6z" />
    <path fill="#d1a93b" d="M116 179.2l-5.5 9.1-5.3-4.1a5.3 5.3 0 01-1.2-7 5.3 5.3 0 017.6-1.5z" />
    <path fill="#dfb945" d="M111.7 175.7l-8.6-3s-7.3 6.6-1.7 23.1l11.4 3.2a73.6 73.6 0 001-10c4.4-6-2.1-13.3-2.1-13.3z" />
    <rect width="31.7" height="31.3" x="127.4" y="154.2" fill="#6366F1" rx="5" />
    <path fill="#fff" d="M149.2 168.7l-1-.2a5 5 0 00-.5-1.3l.6-.8a.8.8 0 000-1l-.7-.6a.8.8 0 00-1 0l-.8.5a5 5 0 00-1.3-.5l-.1-1a.8.8 0 00-.8-.6h-.8a.8.8 0 00-.8.6l-.2 1a5.2 5.2 0 00-1.2.5l-.8-.5a.8.8 0 00-1 0l-.6.7a.8.8 0 00-.1 1l.5.8a5.2 5.2 0 00-.5 1.2l-1 .2a.8.8 0 00-.6.8v.8a.8.8 0 00.6.8l1 .2a5.2 5.2 0 00.5 1.2l-.5.8a.8.8 0 000 1l.7.6a.8.8 0 001 .1l.8-.6a5.5 5.5 0 001.2.5l.2 1a.8.8 0 00.8.7h.8a.8.8 0 00.8-.7l.2-1a5 5 0 001.2-.5l.8.6a.8.8 0 001-.1l.6-.6a.8.8 0 00.1-1l-.6-.8a5.2 5.2 0 00.5-1.3l1-.2a.8.8 0 00.7-.7v-.9a.8.8 0 00-.7-.7zm-6 3.4a2.3 2.3 0 112.3-2.3 2.3 2.3 0 01-2.3 2.3z" />
    <path fill="#e5b699" d="M112 180.8l6.2 7.5L129 179l2.2 2.1s-5.9 9.9-11.4 14.2a2.8 2.8 0 01-3.3 0 44.1 44.1 0 01-9.9-10.4z" />
    <path fill="#e5b699" d="M136.6 175.8a.5.5 0 00-.6 0l-1.5 1-.2-.1 1.7-1.7a.5.5 0 000-.7.6.6 0 00-.8 0l-1.8 1.6h-.2l1.8-2.5a.4.4 0 00-.1-.6.5.5 0 00-.7 0l-2 2.2-.2-.1 1-2a.5.5 0 000-.6.5.5 0 00-.8.1l-1.1 1.8-.9 1.9-.3-1.7a.4.4 0 00-.4-.4.5.5 0 00-.5.4c-.1 1.1 0 4.4-.2 4.6l2.2 2.1 4.4-3.6 1.2-1a.4.4 0 000-.7z" />
    <path fill="#e1b846" d="M113.8 182.7l-7.7 7.6-4.2-5.3a5.3 5.3 0 01.6-7.2 5.3 5.3 0 017.8.8z" />
    <path fill="none" stroke="#d1a73e" stroke-miterlimit="10" stroke-width=".8" d="M108.8 187.8l-2.7 2.5-4.2-5.4m11.8-2.2l-4-4.8" />
    <path fill="#1e2325" d="M110.6 164.8l4.3-1c2.8 1.6 3.3 6.4 3.3 6.4h-7.3z" />
    <path fill="#e5b699" d="M112 168l-2.2 6.7-6.2-2.5 3.4-10.1 5 5.9z" />
    <path fill="#d6a485" d="M110.7 172l-1.1-4.2 2.5 1.2z" />
    <path fill="#e5b699" d="M114 154s3.1.4 3.3 4.5l.2 7.2a3.5 3.5 0 01-4.2 3.5 10.4 10.4 0 01-4-1.9l-2-1.7c-4.3-4.9-.3-12.6 6.1-11.8z" />
    <path fill="#e5b699" d="M117 162.7l1.5 1.4a.3.3 0 01-.2.5l-1.5.2z" />
    <path fill="#1e2325" d="M109.6 161.2s-1.9-9.9 6.6-5.9c0 0-3.3-5.3-10.7-2a6.5 6.5 0 00-3.5 4.2c-.5 2.7 1 5 3.4 9.3l2.9-3.3a12 12 0 011.3-2.3z" />
    <path fill="#1e2325" d="M106.9 158.3l1.7 4c10.9-3.4 6-8.4 6-8.4s-8.9-2.6-7.7 4.4z" />
    <path fill="#1e2325" d="M112.4 160.2l-1.6 2.3-1.9-2.7 3.5.4zm.5-5.8s3.8.6 4.3 3.2c0 0 3-3-3.1-4.3-3.6-.7-1.2 1-1.2 1zm-3.9 9s-.7 5-.2 6.8l-9.1-.5a17.5 17.5 0 001.8-5.7c.1-2-.9-6.4 2.1-9.4l1.5 5.8z" />
    <path fill="#e5b699" d="M106.6 162.5a2.1 2.1 0 102.3-2 2.1 2.1 0 00-2.3 2zm-3.5 10.3a12.6 12.6 0 008.6 2.9l-3.7-4.4-3.6-.8z" />
</svg>